<?xml version="1.0" encoding="UTF-8" standalone="no"?>
<!DOCTYPE svg PUBLIC "-//W3C//DTD SVG 1.1//EN"
 "http://www.w3.org/Graphics/SVG/1.1/DTD/svg11.dtd">
<!-- Generated by graphviz version 2.40.1 (20161225.0304)
 -->
<!-- Title: %0 Pages: 1 -->
<svg width="692pt" height="514pt"
 viewBox="0.00 0.00 692.00 514.00" xmlns="http://www.w3.org/2000/svg" xmlns:xlink="http://www.w3.org/1999/xlink">
<g id="graph0" class="graph" transform="scale(1 1) rotate(0) translate(4 510)">
<title>%0</title>
<polygon fill="#ffffff" stroke="transparent" points="-4,4 -4,-510 688,-510 688,4 -4,4"/>
<!-- 1&#45;&gt;2 -->
<g id="edge1" class="edge">
<title>1&#45;&gt;2</title>
<path fill="none" stroke="#cccccc" d="M270,-419.853C270,-404.5503 270,-387.2295 270,-371.5099"/>
<polygon fill="#cccccc" stroke="#cccccc" points="271.7501,-371.2455 270,-366.2455 268.2501,-371.2455 271.7501,-371.2455"/>
</g>
<!-- 2&#45;&gt;3 -->
<g id="edge2" class="edge">
<title>2&#45;&gt;3</title>
<path fill="none" stroke="#cccccc" d="M225.6203,-279.853C209.3328,-264.018 190.8228,-246.0221 174.2148,-229.8755"/>
<polygon fill="#cccccc" stroke="#cccccc" points="175.286,-228.4762 170.4811,-226.2455 172.8462,-230.9857 175.286,-228.4762"/>
</g>
<!-- 2&#45;&gt;4 -->
<g id="edge3" class="edge">
<title>2&#45;&gt;4</title>
<path fill="none" stroke="#cccccc" d="M314.3797,-279.853C330.6672,-264.018 349.1772,-246.0221 365.7852,-229.8755"/>
<polygon fill="#cccccc" stroke="#cccccc" points="367.1538,-230.9857 369.5189,-226.2455 364.714,-228.4762 367.1538,-230.9857"/>
</g>
<!-- 4&#45;&gt;5 -->
<g id="edge4" class="edge">
<title>4&#45;&gt;5</title>
<path fill="none" stroke="#cccccc" d="M369.6203,-139.853C353.3328,-124.018 334.8228,-106.0221 318.2148,-89.8755"/>
<polygon fill="#cccccc" stroke="#cccccc" points="319.286,-88.4762 314.4811,-86.2455 316.8462,-90.9857 319.286,-88.4762"/>
</g>
<!-- 4&#45;&gt;6 -->
<g id="edge5" class="edge">
<title>4&#45;&gt;6</title>
<path fill="none" stroke="#cccccc" d="M458.3797,-139.853C474.6672,-124.018 493.1772,-106.0221 509.7852,-89.8755"/>
<polygon fill="#cccccc" stroke="#cccccc" points="511.1538,-90.9857 513.5189,-86.2455 508.714,-88.4762 511.1538,-90.9857"/>
</g>
<!-- 1 -->
<g id="node1" class="node">
<title>1</title>
<polygon fill="#add8e6" stroke="#b3b3b3" points="396,-506 144,-506 144,-420 396,-420 396,-506"/>
<text text-anchor="middle" x="270" y="-466" font-family="Helvetica,sans-Serif" font-size="10.00" fill="#ffffff">Records identified</text>
<text text-anchor="middle" x="270" y="-454" font-family="Helvetica,sans-Serif" font-size="10.00" fill="#ffffff">n = 616</text>
</g>
<!-- 2 -->
<g id="node2" class="node">
<title>2</title>
<polygon fill="#add8e6" stroke="#b3b3b3" points="396,-366 144,-366 144,-280 396,-280 396,-366"/>
<text text-anchor="middle" x="270" y="-326" font-family="Helvetica,sans-Serif" font-size="10.00" fill="#ffffff">Records screened</text>
<text text-anchor="middle" x="270" y="-314" font-family="Helvetica,sans-Serif" font-size="10.00" fill="#ffffff">n = 616</text>
</g>
<!-- 3 -->
<g id="node3" class="node">
<title>3</title>
<polygon fill="#add8e6" stroke="#b3b3b3" points="252,-226 0,-226 0,-140 252,-140 252,-226"/>
<text text-anchor="middle" x="126" y="-192" font-family="Helvetica,sans-Serif" font-size="10.00" fill="#ffffff">Records excluded</text>
<text text-anchor="middle" x="126" y="-180" font-family="Helvetica,sans-Serif" font-size="10.00" fill="#ffffff">n = 0</text>
<text text-anchor="middle" x="126" y="-168" font-family="Helvetica,sans-Serif" font-size="10.00" fill="#ffffff">duplicates removed via automated deduplication</text>
</g>
<!-- 4 -->
<g id="node4" class="node">
<title>4</title>
<polygon fill="#add8e6" stroke="#b3b3b3" points="540,-226 288,-226 288,-140 540,-140 540,-226"/>
<text text-anchor="middle" x="414" y="-186" font-family="Helvetica,sans-Serif" font-size="10.00" fill="#ffffff">Full&#45;text articles assessed</text>
<text text-anchor="middle" x="414" y="-174" font-family="Helvetica,sans-Serif" font-size="10.00" fill="#ffffff">n = 616</text>
</g>
<!-- 5 -->
<g id="node5" class="node">
<title>5</title>
<polygon fill="#add8e6" stroke="#b3b3b3" points="396,-86 144,-86 144,0 396,0 396,-86"/>
<text text-anchor="middle" x="270" y="-52" font-family="Helvetica,sans-Serif" font-size="10.00" fill="#ffffff">Full&#45;text articles excluded</text>
<text text-anchor="middle" x="270" y="-40" font-family="Helvetica,sans-Serif" font-size="10.00" fill="#ffffff">n = 0</text>
<text text-anchor="middle" x="270" y="-28" font-family="Helvetica,sans-Serif" font-size="10.00" fill="#ffffff">non&#45;quantitative outcomes</text>
</g>
<!-- 6 -->
<g id="node6" class="node">
<title>6</title>
<polygon fill="#add8e6" stroke="#b3b3b3" points="684,-86 432,-86 432,0 684,0 684,-86"/>
<text text-anchor="middle" x="558" y="-46" font-family="Helvetica,sans-Serif" font-size="10.00" fill="#ffffff">Studies included</text>
<text text-anchor="middle" x="558" y="-34" font-family="Helvetica,sans-Serif" font-size="10.00" fill="#ffffff">n = 616</text>
</g>
</g>
</svg>

